<svg xmlns="http://www.w3.org/2000/svg" width="40.728" height="40.728" viewBox="0 0 40.728 40.728"><defs></defs><g transform="translate(-2 -2)"><path d="M22.364,2A20.364,20.364,0,1,0,42.728,22.364,20.362,20.362,0,0,0,22.364,2Zm0,4.073a16.268,16.268,0,0,1,13.682,25.1l-1.567-1.209c-3.158-2.434-8.989-3.532-12.115-3.532s-8.957,1.1-12.115,3.532L8.682,31.186A16.274,16.274,0,0,1,22.364,6.073Zm0,3.564a6.618,6.618,0,1,0,6.618,6.618A6.623,6.623,0,0,0,22.364,9.636Zm0,4.073a2.545,2.545,0,1,1-2.545,2.545A2.553,2.553,0,0,1,22.364,13.709Zm0,16.8a17.531,17.531,0,0,1,11.3,3.572,16.235,16.235,0,0,1-22.591,0A17.531,17.531,0,0,1,22.364,30.509ZM10.257,33.238c.247.271.493.541.756.8C10.75,33.779,10.5,33.508,10.257,33.238Zm24.142.072c-.223.247-.446.493-.676.724C33.954,33.8,34.177,33.556,34.4,33.309Z"/></g></svg>