<svg xmlns="http://www.w3.org/2000/svg" width="44.074" height="44.072" viewBox="0 0 44.074 44.072"><defs></defs><g transform="translate(-1.999 -2)"><path d="M24.037,2A22.046,22.046,0,0,0,2.053,25.611c.809,11.646,10.975,20.461,22.664,20.461h1.524a4.4,4.4,0,0,0,4.407-4.407V35.054a4.4,4.4,0,0,1,4.407-4.407h6.611a4.4,4.4,0,0,0,4.407-4.407V24.716c0-11.689-8.806-21.855-20.461-22.664C25.087,2.017,24.554,2,24.037,2Zm0,4.407c.422,0,.844.017,1.265.043,9.176.637,16.364,8.659,16.364,18.266V26.24H35.055a8.82,8.82,0,0,0-8.814,8.814v6.611H24.717c-9.606,0-17.629-7.187-18.266-16.364A17.639,17.639,0,0,1,24.037,6.407Zm1.1,2.2a3.305,3.305,0,1,0,3.305,3.305A3.306,3.306,0,0,0,25.139,8.611Zm-8.814,2.2A3.305,3.305,0,1,0,19.63,14.12,3.306,3.306,0,0,0,16.325,10.814Zm17.629,2.2a3.305,3.305,0,1,0,3.305,3.305A3.306,3.306,0,0,0,33.953,13.018ZM11.917,19.629a3.305,3.305,0,1,0,3.305,3.305A3.306,3.306,0,0,0,11.917,19.629Zm7.713,8.814a4.407,4.407,0,1,0,4.407,4.407A4.4,4.4,0,0,0,19.63,28.443Z" transform="translate(0 0)"/></g></svg>